<svg width="261" height="162" viewBox="0 0 261 162" fill="none" xmlns="http://www.w3.org/2000/svg">
<path d="M13.3907 112.495H0V134.996H5.45928V117.381H13.3907V112.495Z" fill="white"/>
<path d="M31.1483 126.476C30.8486 127.31 30.421 128.026 29.8654 128.613C29.3098 129.204 28.645 129.669 27.874 130.013C27.0999 130.353 26.2353 130.525 25.2739 130.525C24.3281 130.525 23.4697 130.353 22.6863 130.013C21.9059 129.669 21.2317 129.197 20.6636 128.598C20.0986 127.998 19.6648 127.285 19.3651 126.461C19.0655 125.636 18.9125 124.73 18.9125 123.746C18.9125 122.736 19.0655 121.821 19.3651 120.996C19.6648 120.171 20.0986 119.465 20.6636 118.875C21.2317 118.284 21.9059 117.819 22.6863 117.478C23.4697 117.134 24.3406 116.963 25.302 116.963C26.2696 116.963 27.1405 117.134 27.9208 117.478C28.7011 117.819 29.3723 118.29 29.9279 118.89C30.4866 119.49 30.9017 120.199 31.1826 121.012C31.4573 121.827 31.5978 122.736 31.5978 123.746C31.5978 124.73 31.4479 125.642 31.1483 126.476ZM33.9263 115.244C32.8432 114.182 31.5697 113.373 30.1058 112.817C28.6387 112.257 27.0374 111.982 25.302 111.982C23.5915 111.982 21.9964 112.257 20.52 112.817C19.0436 113.373 17.7514 114.176 16.6495 115.229C15.5477 116.275 14.6955 117.525 14.0962 118.972C13.4969 120.418 13.1973 122.008 13.1973 123.746C13.1973 125.48 13.4876 127.076 14.065 128.535C14.6425 129.991 15.479 131.256 16.5715 132.325C17.6608 133.397 18.9468 134.228 20.4233 134.818C21.9028 135.406 23.5259 135.702 25.302 135.702C27.0593 135.702 28.6699 135.406 30.137 134.818C31.604 134.228 32.8838 133.397 33.9731 132.325C35.0656 131.256 35.9115 129.991 36.5108 128.535C37.1101 127.076 37.4098 125.48 37.4098 123.746C37.4098 122.008 37.0977 120.421 36.4796 118.987C35.8585 117.553 35.0063 116.303 33.9263 115.244Z" fill="white"/>
<path d="M52.7577 125.061L43.1595 111.37L39.5605 134.993H45.2446L46.6273 123.552L52.7577 132.906L58.8943 123.552L60.274 134.993H66.0235L62.3278 111.37L52.7577 125.061Z" fill="white"/>
<path d="M69.4568 112.495V134.996H84.3583V130.525H74.6601V125.383H83.7152V120.949H74.6601V116.963H84.3583V112.495H69.4568Z" fill="white"/>
<path d="M90.1359 125.801C90.1359 126.507 90.0641 127.142 89.9143 127.698C89.7645 128.254 89.5366 128.735 89.237 129.144C88.9373 129.551 88.5815 129.863 88.1632 130.075C87.745 130.291 87.2674 130.397 86.7336 130.397V134.996C88.8312 134.996 90.5323 134.64 91.8371 133.934C93.1449 133.225 94.097 132.172 94.6963 130.769C95.2956 129.363 95.5952 127.601 95.5952 125.48V117.381H103.077V134.996H108.571V112.495H90.1359V125.801Z" fill="white"/>
<path d="M124.415 129.226C124.15 129.666 123.747 129.991 123.213 130.207C122.676 130.422 122.046 130.525 121.315 130.525H118.94V124.77H121.315C122.046 124.77 122.676 124.88 123.213 125.095C123.747 125.308 124.15 125.63 124.415 126.061C124.68 126.486 124.818 127.014 124.818 127.635C124.818 128.254 124.68 128.785 124.415 129.226ZM126.15 121.14C124.855 120.543 123.245 120.24 121.315 120.24H118.94V112.495H113.546V134.996H116.917H118.94H121.315C123.245 134.996 124.855 134.7 126.15 134.112C127.446 133.522 128.42 132.672 129.072 131.553C129.725 130.441 130.052 129.135 130.052 127.635C130.052 126.114 129.725 124.802 129.072 123.696C128.42 122.596 127.446 121.74 126.15 121.14Z" fill="white"/>
<path d="M150.216 126.476C149.917 127.31 149.489 128.026 148.933 128.613C148.378 129.204 147.713 129.669 146.942 130.013C146.171 130.353 145.303 130.525 144.342 130.525C143.396 130.525 142.538 130.353 141.754 130.013C140.974 129.669 140.3 129.197 139.731 128.598C139.166 127.998 138.733 127.285 138.433 126.461C138.133 125.636 137.983 124.73 137.983 123.746C137.983 122.736 138.133 121.821 138.433 120.996C138.733 120.171 139.166 119.465 139.731 118.875C140.3 118.284 140.974 117.819 141.754 117.478C142.538 117.134 143.408 116.963 144.37 116.963C145.337 116.963 146.208 117.134 146.989 117.478C147.769 117.819 148.44 118.29 148.996 118.89C149.554 119.49 149.97 120.199 150.25 121.012C150.528 121.827 150.666 122.736 150.666 123.746C150.666 124.73 150.516 125.642 150.216 126.476ZM152.994 115.244C151.911 114.182 150.638 113.373 149.174 112.817C147.707 112.257 146.105 111.982 144.37 111.982C142.659 111.982 141.064 112.257 139.588 112.817C138.111 113.373 136.822 114.176 135.717 115.229C134.619 116.275 133.767 117.525 133.164 118.972C132.565 120.418 132.265 122.008 132.265 123.746C132.265 125.48 132.555 127.076 133.133 128.535C133.713 129.991 134.547 131.256 135.639 132.325C136.729 133.397 138.015 134.228 139.491 134.818C140.968 135.406 142.594 135.702 144.37 135.702C146.127 135.702 147.738 135.406 149.205 134.818C150.672 134.228 151.952 133.397 153.041 132.325C154.133 131.256 154.979 129.991 155.579 128.535C156.178 127.076 156.478 125.48 156.478 123.746C156.478 122.008 156.169 120.421 155.547 118.987C154.926 117.553 154.074 116.303 152.994 115.244Z" fill="white"/>
<path d="M171.91 129.385C171.641 129.782 171.27 130.072 170.801 130.254C170.33 130.435 169.743 130.525 169.032 130.525H165.595V125.383H169.032C169.743 125.383 170.33 125.473 170.801 125.658C171.27 125.839 171.641 126.117 171.91 126.492C172.175 126.867 172.309 127.345 172.309 127.923C172.309 128.501 172.175 128.988 171.91 129.385ZM174.091 121.846C172.946 121.246 171.647 120.946 170.19 120.946H165.595V116.963H176.13V112.495H160.076V134.996H161.584H165.595H170.19C171.647 134.996 172.946 134.696 174.091 134.093C175.237 133.497 176.145 132.662 176.819 131.603C177.497 130.544 177.834 129.326 177.834 127.954C177.834 126.564 177.497 125.345 176.819 124.308C176.145 123.268 175.237 122.446 174.091 121.846Z" fill="white"/>
<path d="M182.84 125.801C182.84 126.507 182.769 127.142 182.616 127.698C182.466 128.254 182.241 128.735 181.942 129.144C181.642 129.551 181.286 129.863 180.868 130.075C180.45 130.291 179.972 130.397 179.438 130.397V134.996C181.536 134.996 183.237 134.64 184.545 133.934C185.849 133.225 186.802 132.172 187.401 130.769C188 129.363 188.3 127.601 188.3 125.48V117.381H195.782V134.996H201.275V112.495H182.84V125.801Z" fill="white"/>
<path d="M219.801 112.495H206.41V134.996H211.869V117.381H219.801V112.495Z" fill="white"/>
<path d="M231.219 126.507H226.212L228.728 120.787L231.219 126.507ZM216.879 134.996H223.013L225.107 130.653H232.224L234.315 134.996H240.514L228.728 111.083L216.879 134.996Z" fill="white"/>
<path d="M260.198 125.898C259.661 125.083 258.912 124.417 257.95 123.905C257.42 123.621 256.823 123.386 256.19 123.186C256.617 123.033 257.039 122.877 257.42 122.683C258.353 122.211 259.074 121.608 259.586 120.868C260.101 120.131 260.36 119.268 260.36 118.281C260.36 117.144 260.032 116.107 259.38 115.163C258.728 114.223 257.76 113.47 256.474 112.91C255.188 112.354 253.593 112.076 251.689 112.076C249.804 112.076 248.221 112.385 246.935 113.007C245.652 113.629 244.675 114.46 243.998 115.5C243.324 116.541 242.986 117.734 242.986 119.084H247.993C247.993 118.572 248.143 118.109 248.446 117.703C248.745 117.294 249.17 116.978 249.729 116.753C250.287 116.528 250.94 116.416 251.689 116.416C252.416 116.416 253.022 116.525 253.502 116.738C253.983 116.95 254.355 117.241 254.61 117.606C254.866 117.972 254.998 118.387 254.998 118.859C254.998 119.393 254.82 119.871 254.467 120.29C254.111 120.709 253.593 121.04 252.906 121.287C252.223 121.534 251.345 121.655 250.275 121.655V122.396V124.064V125.161C251.239 125.161 252.051 125.233 252.716 125.383C253.381 125.533 253.924 125.748 254.355 126.026C254.782 126.304 255.104 126.639 255.316 127.023C255.531 127.407 255.637 127.838 255.637 128.307C255.637 128.951 255.469 129.476 255.141 129.885C254.807 130.291 254.342 130.603 253.743 130.816C253.143 131.028 252.438 131.138 251.623 131.138C250.812 131.138 250.1 131.022 249.488 130.785C248.876 130.547 248.386 130.185 248.012 129.691C247.637 129.197 247.428 128.576 247.384 127.826H242.022C242.022 128.854 242.215 129.825 242.599 130.735C242.986 131.647 243.58 132.459 244.382 133.178C245.187 133.897 246.208 134.459 247.447 134.865C248.692 135.271 250.156 135.474 251.848 135.474C253.905 135.474 255.6 135.196 256.939 134.64C258.278 134.084 259.286 133.309 259.973 132.309C260.66 131.313 261 130.163 261 128.854C261 127.698 260.735 126.714 260.198 125.898Z" fill="white"/>
<path fill-rule="evenodd" clip-rule="evenodd" d="M156.952 27.2826L134.808 0.312073V15.6594L144.379 27.1624C145.28 28.2437 145.28 29.8355 144.379 30.9167L137.808 38.9357C137.388 39.4463 137.388 40.1371 137.808 40.6477L145.67 50.2285L156.952 36.4429C159.112 33.7999 159.112 29.9556 156.952 27.2826Z" fill="white"/>
<path fill-rule="evenodd" clip-rule="evenodd" d="M140.539 66.7773L119.865 41.6388C117.465 38.6955 117.465 34.4307 119.865 31.4874L132.767 15.8096V0.342163L106.363 32.5386C101.892 38.0047 101.892 45.9037 106.363 51.3398L128.957 78.8509C131.177 81.554 132.017 85.0379 131.327 88.4317L140.539 77.2591C143.029 74.2257 143.029 69.8107 140.539 66.7773Z" fill="white"/>
<path fill-rule="evenodd" clip-rule="evenodd" d="M124.516 39.2366C123.196 37.6448 123.196 35.3322 124.516 33.7404C126.856 30.8871 133.848 22.3575 133.848 22.3575L139.939 29.7458C138.829 31.0974 135.558 35.1219 133.668 37.4345C132.407 38.9663 132.407 41.2188 133.668 42.7505C135.678 45.2133 141.739 52.6317 141.739 52.6317L138.619 56.416C138.619 56.446 128.057 43.5314 124.516 39.2366ZM134.808 41.8195C133.998 40.8284 133.998 39.4168 134.808 38.4257C136.758 36.053 140.149 31.9083 141.169 30.6469C141.589 30.1363 141.589 29.4155 141.169 28.9349L133.848 20.0148C133.848 20.0148 125.986 29.6257 123.376 32.8093C121.606 34.9717 121.606 38.0652 123.376 40.2277C127.187 44.883 138.649 58.8487 138.649 58.8487L143.69 52.6918L134.808 41.8195Z" fill="white"/>
</svg>
